# xmcd CD database file
#
# Track frame offsets:
#	150
#	15915
#	35050
#	51905
#
# Disc length: 996 seconds
#
# Revision: 0
# Processed by: cddbd v1.5.1PL0 Copyright (c) Steve Scherf et al.
# Submitted via: CDex 1.51
#
DISCID=2903e204
DTITLE=林原めぐみ - PULSE
DYEAR=1990
DGENRE=JPop
TTITLE0=COME TRUE…
TTITLE1=Follow you, Follow me
TTITLE2=GO ALONG! GO AROUND!!
TTITLE3=夢を追いかけて
EXTD=YEAR: 1990
EXTT0=
EXTT1=
EXTT2=
EXTT3=
PLAYORDER=
